<svg width="49" height="46" viewBox="0 0 49 46" fill="none" xmlns="http://www.w3.org/2000/svg">
<rect x="1.5" y="1.23456" width="45.8333" height="42.9905" fill="#D9D9D9" stroke="black" stroke-width="2"/>
<rect x="5.86475" y="4.68115" width="4.67514" height="4.52515" fill="#9BECEC" stroke="black"/>
<rect x="13.9717" y="4.68115" width="4.67514" height="4.52515" fill="#9BECEC" stroke="black"/>
<rect x="22.0791" y="4.68115" width="4.67514" height="4.52515" fill="#9BECEC" stroke="black"/>
<rect x="30.1865" y="4.68115" width="4.67514" height="4.52515" fill="#9BECEC" stroke="black"/>
<rect x="38.2939" y="4.68115" width="4.67514" height="4.52515" fill="#9BECEC" stroke="black"/>
<path d="M5.36475 13.5617H43.4693" stroke="black"/>
<path d="M5.36475 21.546H43.4693" stroke="black"/>
<path d="M5.76953 13.2583L5.76953 21.546" stroke="black"/>
<path d="M43.0642 13.2583V21.546" stroke="black"/>
<path d="M16.8333 17.8964V16.6464H17.0833V16.3964H17.3333V16.1464H18.0833V16.3964H18.3333V16.6464H18.5833V17.8964H18.0833V17.3964H17.3333V17.8964H16.8333ZM17.3333 17.1464H18.0833V16.6464H17.8333V16.3964H17.5833V16.6464H17.3333V17.1464ZM19.3333 17.8964V17.6464H19.0833V17.3964H18.8333V16.6464H19.0833V16.3964H19.3333V16.1464H20.3333V16.3964H20.5833V16.6464H20.0833V16.3964H19.5833V16.6464H19.3333V17.3964H19.5833V17.6464H20.0833V17.3964H20.5833V17.6464H20.3333V17.8964H19.3333ZM20.8333 17.8964V16.6464H21.0833V16.3964H21.3333V16.1464H22.0833V16.3964H22.3333V16.6464H22.5833V17.8964H22.0833V17.3964H21.3333V17.8964H20.8333ZM21.3333 17.1464H22.0833V16.6464H21.8333V16.3964H21.5833V16.6464H21.3333V17.1464ZM22.8333 17.8964V16.1464H24.0833V16.3964H24.3333V16.6464H24.5833V17.3964H24.3333V17.6464H24.0833V17.8964H22.8333ZM23.3333 17.6464H23.8333V17.3964H24.0833V16.6464H23.8333V16.3964H23.3333V17.6464ZM24.8333 17.8964V16.1464H26.5833V16.3964H25.3333V16.8964H26.3333V17.1464H25.3333V17.6464H26.5833V17.8964H24.8333ZM26.8333 17.8964V16.1464H27.3333V16.3964H27.5833V16.6464H27.8333V16.3964H28.0833V16.1464H28.5833V17.8964H28.0833V16.8964H27.8333V17.3964H27.5833V16.8964H27.3333V17.8964H26.8333ZM29.5833 17.8964V17.1464H29.3333V16.8964H29.0833V16.1464H29.5833V16.8964H30.0833V16.1464H30.5833V16.8964H30.3333V17.1464H30.0833V17.8964H29.5833Z" fill="black"/>
<rect x="12.3506" y="26.782" width="24.1328" height="17.1541" stroke="black"/>
<path d="M24.417 26.6767V44.0415" stroke="black"/>
<line x1="26.9438" y1="33.3859" x2="26.9438" y2="34.9645" stroke="black"/>
<line x1="22.0791" y1="33.3859" x2="22.0791" y2="34.9645" stroke="black"/>
</svg>
