<svg width="69" height="69" viewBox="0 0 69 69" fill="none" xmlns="http://www.w3.org/2000/svg">
<path d="M45.3381 30.8895V30.9256M9.8534 21.4218C8.26965 20.2046 7.05329 18.5731 6.33875 16.7078C5.62422 14.8425 5.43933 12.816 5.80453 10.8522C6.16973 8.88838 7.0708 7.06378 8.40814 5.58006C9.74548 4.09634 11.467 3.01127 13.3825 2.44478C15.2979 1.87829 17.3327 1.85243 19.262 2.37007C21.1912 2.88771 22.9398 3.92869 24.3144 5.37795C25.689 6.82721 26.6361 8.62832 27.0511 10.5822C27.4661 12.5361 27.3327 14.5667 26.6658 16.4495M48.949 5.61312V19.3454C53.4179 21.9313 56.8203 26.0236 58.5468 30.8895H63.3891C64.3468 30.8895 65.2652 31.27 65.9424 31.9472C66.6196 32.6243 67 33.5428 67 34.5005V41.7223C67 42.68 66.6196 43.5984 65.9424 44.2756C65.2652 44.9528 64.3468 45.3332 63.3891 45.3332H58.5432C57.33 48.7636 55.2681 51.8329 52.5563 54.263V61.5823C52.5563 63.0188 51.9857 64.3965 50.9699 65.4123C49.9541 66.428 48.5765 66.9987 47.14 66.9987C45.7034 66.9987 44.3258 66.428 43.31 65.4123C42.2942 64.3965 41.7236 63.0188 41.7236 61.5823V59.4772C40.5303 59.677 39.3225 59.7773 38.1127 59.7769H23.669C22.4591 59.7773 21.2513 59.677 20.0581 59.4772V61.5823C20.0581 63.0188 19.4874 64.3965 18.4717 65.4123C17.4559 66.428 16.0782 66.9987 14.6417 66.9987C13.2052 66.9987 11.8275 66.428 10.8117 65.4123C9.79598 64.3965 9.22533 63.0188 9.22533 61.5823V54.263C5.9537 51.338 3.64746 47.4885 2.61187 43.2239C1.57628 38.9594 1.86018 34.4809 3.42598 30.3812C4.99178 26.2815 7.76566 22.754 11.3804 20.2656C14.9952 17.7772 19.2805 16.4452 23.669 16.4459H32.6963L48.9454 5.61312H48.949Z" stroke="white" stroke-width="4" stroke-linecap="round" stroke-linejoin="round"/>
</svg>
