<svg width="249" height="82" viewBox="0 0 249 82" fill="none" xmlns="http://www.w3.org/2000/svg">
<path d="M16 57.5V33L47.5 24H96H153.5L199 31L228.5 42.5L234 66H205L201.5 49L190.5 44.5L175.5 53L177.5 66H73.5V53L63 44.5L47.5 49L42 66L16 57.5Z" fill="#B30A0A"/>
<path d="M147.5 23L59 22L68.5 12.5L99.5 6L118 4.5L143 16.5L147.5 23Z" fill="#747474"/>
<path d="M48.4999 46C44.0999 44 45.6666 31.1667 46.9999 25L15 32V56L28 64.5L41.5 68L43 52.5L58 46L68 49L71 56L82 68H141C153.167 66.3333 170.7 63.3 143.5 64.5C116.3 65.7 83.8333 54.6667 71 49L56 44C55.3333 45.5 52.8999 48 48.4999 46Z" fill="#801111"/>
<path d="M227.5 52.5C212.3 42.1 145.833 27.5 115 22L132 23L170.5 26C187 29.6667 220.7 37.4 223.5 39C226.3 40.6 229.667 44.3333 231 46L227.5 52.5Z" fill="#E02323"/>
<path d="M43 60.5L46 50L52 46.5L67.5 45L72.5 53L74 65L64 73L51 71.5L43 60.5Z" fill="#585858"/>
<path d="M175 59.5L178 49L184 45.5L199.5 44L204.5 52L206 64L196 72L183 70.5L175 59.5Z" fill="#585858"/>
<path d="M206.225 70.0435H238.087L233.143 40.3984L231.606 39.4608C218.238 31.4387 203.653 26.2683 188.255 24.0857L156.863 19.5845L117.698 0H116.779C110.123 0 103.513 0.482411 97.0432 1.43946L97.0938 1.29162L90.5578 2.5638H90.5539C90.5462 2.5638 90.5423 2.5638 90.5345 2.56769L88.3208 3.0112L88.2975 3.08512C77.2097 5.44273 66.3671 9.18922 56.0613 14.3402L44.9424 19.8996L23.4127 25.2101V17.0713L29.9642 19.2577L32.4268 11.8775L15.6357 6.28306V27.1358L11.7452 28.0968V61.0021L34.3409 70.0396H42.8999C44.0593 71.5841 45.452 72.9108 46.9849 74.0351L0 74.1557L0.0194522 81.9405L93.3901 81.6954L93.3706 73.9145L69.9502 73.9768C71.4519 72.8641 72.8174 71.5608 73.9573 70.0435H132.337H140.118H151.085H158.971H175.159C176.28 71.5336 177.618 72.8174 179.085 73.9184H124.506V81.6993H225.657V73.9184H202.299C203.77 72.8174 205.104 71.5336 206.225 70.0435ZM93.9425 10.7571L94.2693 9.77279C101.303 8.50062 108.551 7.83146 115.869 7.78089L139.204 19.4483H91.0519L93.9425 10.7571ZM85.438 11.6674L84.9712 13.0719L82.8509 19.4483H63.3909C70.5298 16.1687 77.91 13.5621 85.438 11.6674ZM68.5107 64.1923C66.4449 67.7871 62.5817 70.0241 58.4228 70.0241C54.2639 70.0241 50.4007 67.791 48.3349 64.1923C47.2844 62.3716 46.7515 60.4069 46.7515 58.3528C46.7515 56.2986 47.2844 54.3339 48.3349 52.5132C48.7823 51.739 49.3425 51.0582 49.9416 50.4201C50.2412 50.1089 50.5641 49.8249 50.8987 49.5487C51.1749 49.3114 51.4628 49.0974 51.7585 48.8912C54.011 47.3545 56.7693 46.6075 59.5121 46.8293C59.8117 46.8565 60.1073 46.8954 60.3991 46.946C60.8854 47.0238 61.3717 47.1172 61.8503 47.2572C62.675 47.514 63.4881 47.8213 64.2662 48.2687C67.861 50.3345 70.098 54.1978 70.098 58.3566C70.0941 60.4069 69.5611 62.3716 68.5107 64.1923ZM132.333 62.2432H77.4743C77.5054 62.0993 77.4937 61.9514 77.5171 61.8075C77.7272 60.6676 77.8711 59.5121 77.8711 58.3528C77.8711 57.5319 77.8089 56.7188 77.7077 55.9134C77.6727 55.6528 77.6143 55.396 77.5676 55.1393C77.4782 54.6024 77.3809 54.0655 77.2447 53.5403C77.1669 53.2407 77.0697 52.9489 76.9763 52.6533C76.8285 52.1786 76.6767 51.7118 76.4978 51.2527C76.3772 50.9531 76.2449 50.6575 76.1126 50.3618C75.9142 49.9261 75.708 49.4981 75.4785 49.0779C75.3229 48.79 75.1595 48.506 74.9883 48.2259C74.7393 47.8213 74.4747 47.4245 74.1946 47.0393C74.004 46.7748 73.8173 46.5102 73.615 46.2574C73.3076 45.8722 72.9808 45.5065 72.6424 45.1447C72.4323 44.9191 72.23 44.6856 72.0082 44.4678C71.6153 44.0865 71.199 43.7325 70.771 43.3784C70.5726 43.215 70.3898 43.04 70.1836 42.8843C70.1486 42.8571 70.1213 42.8299 70.0863 42.8027V38.9005H79.3534L87.037 54.2678L132.333 58.0415V62.2432ZM152.389 62.2432H140.122V50.8831L92.0479 46.8759L84.1697 31.1196H62.3132V39.3013C62.1343 39.2623 61.9514 39.2662 61.7686 39.2351C61.1189 39.1184 60.4653 39.0445 59.8039 38.9939C59.5354 38.9745 59.267 38.9472 58.9986 38.9394C58.804 38.9317 58.6134 38.9005 58.4228 38.9005C53.6259 38.9005 49.0896 40.7174 45.5882 43.8025C45.4987 43.8842 45.4054 43.9581 45.3159 44.0398C44.7129 44.5923 44.1488 45.1836 43.6158 45.81C43.4913 45.9539 43.3629 46.0862 43.2423 46.234C42.6431 46.9888 42.079 47.7785 41.5927 48.6267C39.8809 51.6028 38.9745 54.9642 38.9745 58.3489C38.9745 59.5121 39.1184 60.6637 39.3285 61.8036C39.3557 61.9475 39.3441 62.0954 39.3713 62.2393H35.831L19.5222 55.715V46.6814H23.8912L39.9198 42.6743L38.033 35.1268L22.9381 38.9005H19.5184V34.1581L47.23 27.2292H80.2598H88.4609H149.16L155.559 43.2267L152.389 62.2432ZM171.246 58.3528C171.246 59.5121 171.39 60.6637 171.6 61.8036C171.627 61.9475 171.615 62.0954 171.646 62.2432H160.278L163.593 42.3552L157.676 27.5521L187.161 31.781C200.941 33.734 214.017 38.2508 226.066 45.2186L226.311 46.6814H214.04V54.4623H227.599L228.894 62.2432H209.749C209.78 62.0993 209.769 61.9475 209.796 61.8036C210.006 60.6637 210.15 59.5121 210.15 58.3528C210.15 54.9681 209.244 51.6067 207.532 48.6305C204.077 42.6276 197.627 38.9005 190.698 38.9005C179.972 38.9005 171.246 47.6268 171.246 58.3528ZM190.698 70.0241C186.543 70.0241 182.676 67.791 180.606 64.1923C179.556 62.3716 179.027 60.4069 179.027 58.3528C179.027 51.918 184.263 46.6814 190.698 46.6814C194.849 46.6814 198.72 48.9145 200.79 52.5132C201.84 54.3339 202.369 56.2986 202.369 58.3528C202.369 60.4069 201.836 62.3716 200.786 64.1923C198.72 67.7871 194.853 70.0241 190.698 70.0241Z" fill="black"/>
<path d="M116.725 73.9145H101.163V81.6954H116.725V73.9145Z" fill="black"/>
<path d="M249 73.9145H233.438V81.6954H249V73.9145Z" fill="black"/>
<path d="M194.573 54.4623H186.792V62.2432H194.573V54.4623Z" fill="black"/>
<path d="M62.2976 54.4623H54.5167V62.2432H62.2976V54.4623Z" fill="black"/>
</svg>
