<svg width="102" height="34" viewBox="0 0 102 34" fill="none" xmlns="http://www.w3.org/2000/svg">
<path d="M6.49512 23.3413V13.3959L19.282 9.74249H38.9698H62.311L80.781 12.584L92.7561 17.2523L94.9887 26.7917H83.2166L81.7959 19.8908L77.3306 18.0641L71.2416 21.5146L72.0534 26.7917H29.8363V21.5146L25.574 18.0641L19.282 19.8908L17.0494 26.7917L6.49512 23.3413Z" fill="#FF6F00"/>
<path d="M59.8753 9.33632L23.9502 8.93038L27.8066 5.07401L40.3905 2.43544L47.9003 1.82654L58.0486 6.69775L59.8753 9.33632Z" fill="#747474"/>
<path d="M19.6881 18.6729C17.902 17.861 18.538 12.6515 19.0792 10.1483L6.08936 12.9898V22.7322L11.3665 26.1826L16.8466 27.6034L17.4555 21.3114L23.5445 18.6729L27.6039 19.8907L28.8217 22.7322L33.2869 27.6034H57.237C62.1759 26.9269 69.2933 25.6955 58.2519 26.1826C47.2105 26.6698 34.0311 22.191 28.8217 19.8907L22.7326 17.861C22.462 18.4699 21.4742 19.4847 19.6881 18.6729Z" fill="#E23900"/>
<path d="M92.3502 21.3115C86.18 17.0898 59.1989 11.1631 46.6826 8.93048L53.5835 9.33641L69.212 10.5542C75.9099 12.0426 89.5898 15.1819 90.7265 15.8314C91.8631 16.4809 93.2297 17.9963 93.771 18.6729L92.3502 21.3115Z" fill="#FFA071"/>
<path d="M17.4551 24.5591L18.6729 20.2968L21.1085 18.876L27.4005 18.2671L29.4301 21.5146L30.039 26.3858L25.9797 29.6332L20.7025 29.0243L17.4551 24.5591Z" fill="#585858"/>
<path d="M71.0386 24.1529L72.2564 19.8906L74.692 18.4699L80.984 17.861L83.0136 21.1084L83.6225 25.9796L79.5632 29.2271L74.286 28.6182L71.0386 24.1529Z" fill="#585858"/>
<path d="M83.7136 28.433H96.6477L94.6405 16.3991L94.0167 16.0185C88.5903 12.762 82.6697 10.6632 76.419 9.77722L63.6759 7.95001L47.7774 0H47.4047C44.7026 0 42.0195 0.195827 39.3931 0.584326L39.4137 0.524313L36.7605 1.04073H36.7589C36.7558 1.04073 36.7542 1.04073 36.751 1.04231L35.8524 1.22235L35.843 1.25235C31.3421 2.20939 26.9406 3.73022 22.7572 5.82116L18.2436 8.07793L9.504 10.2336V6.9298L12.1635 7.81735L13.1632 4.82149L6.34706 2.55051V11.0154L4.7678 11.4054V24.7628L13.9402 28.4315H17.4145C17.8852 29.0584 18.4505 29.597 19.0728 30.0534L0 30.1023L0.00789631 33.2624L37.9102 33.1629L37.9023 30.0044L28.3951 30.0297C29.0047 29.578 29.5591 29.049 30.0218 28.433H53.7202H56.8787H61.3307H64.5318H71.1032C71.558 29.0379 72.1012 29.5591 72.6966 30.006H50.5411V33.1645H91.602V30.006H82.1201C82.7171 29.5591 83.2587 29.0379 83.7136 28.433ZM38.1345 4.36666L38.2671 3.96711C41.1224 3.45069 44.0646 3.17906 47.0352 3.15853L56.5076 7.89473H36.9611L38.1345 4.36666ZM34.6822 4.73621L34.4927 5.30632L33.632 7.89473H25.7325C28.6305 6.56341 31.6263 5.50531 34.6822 4.73621ZM27.8108 26.0578C26.9722 27.5171 25.404 28.4252 23.7158 28.4252C22.0276 28.4252 20.4594 27.5187 19.6208 26.0578C19.1944 25.3187 18.978 24.5212 18.978 23.6874C18.978 22.8535 19.1944 22.056 19.6208 21.3169C19.8024 21.0026 20.0298 20.7262 20.273 20.4672C20.3946 20.3409 20.5257 20.2256 20.6615 20.1135C20.7736 20.0172 20.8905 19.9303 21.0105 19.8466C21.9249 19.2228 23.0446 18.9196 24.158 19.0096C24.2796 19.0206 24.3996 19.0364 24.5181 19.057C24.7155 19.0885 24.9129 19.1265 25.1071 19.1833C25.4419 19.2875 25.772 19.4123 26.0878 19.5939C27.5471 20.4325 28.4552 22.0007 28.4552 23.6889C28.4536 24.5212 28.2372 25.3187 27.8108 26.0578ZM53.7186 25.2666H31.4494C31.4621 25.2082 31.4573 25.1482 31.4668 25.0897C31.5521 24.627 31.6105 24.158 31.6105 23.6874C31.6105 23.3541 31.5853 23.0241 31.5442 22.6972C31.53 22.5914 31.5063 22.4871 31.4873 22.3829C31.451 22.165 31.4115 21.947 31.3563 21.7338C31.3247 21.6122 31.2852 21.4938 31.2473 21.3737C31.1873 21.1811 31.1257 20.9916 31.053 20.8052C31.0041 20.6836 30.9504 20.5636 30.8967 20.4436C30.8162 20.2667 30.7325 20.093 30.6393 19.9224C30.5761 19.8055 30.5098 19.6903 30.4403 19.5765C30.3392 19.4123 30.2318 19.2512 30.1181 19.0949C30.0407 18.9875 29.9649 18.8801 29.8828 18.7774C29.7581 18.6211 29.6254 18.4726 29.488 18.3258C29.4027 18.2342 29.3206 18.1394 29.2306 18.051C29.0711 17.8962 28.9021 17.7525 28.7284 17.6088C28.6478 17.5424 28.5736 17.4714 28.4899 17.4082C28.4757 17.3972 28.4646 17.3861 28.4504 17.375V15.791H32.2122L35.3313 22.0291L53.7186 23.561V25.2666ZM61.8597 25.2666H56.8803V20.6552L37.3654 19.0285L34.1674 12.6325H25.2951V15.9537C25.2224 15.9379 25.1482 15.9395 25.074 15.9269C24.8102 15.8795 24.5449 15.8495 24.2764 15.829C24.1675 15.8211 24.0585 15.81 23.9495 15.8068C23.8706 15.8037 23.7932 15.791 23.7158 15.791C21.7686 15.791 19.9271 16.5286 18.5058 17.7809C18.4695 17.8141 18.4316 17.8441 18.3953 17.8773C18.1505 18.1015 17.9215 18.3416 17.7051 18.5958C17.6546 18.6543 17.6025 18.7079 17.5535 18.768C17.3103 19.0743 17.0813 19.3949 16.8839 19.7392C16.189 20.9473 15.8211 22.3118 15.8211 23.6858C15.8211 24.158 15.8795 24.6254 15.9648 25.0882C15.9758 25.1466 15.9711 25.2066 15.9821 25.265H14.545L7.92474 22.6166V18.9496H9.69825L16.2048 17.3229L15.4389 14.2592L9.31133 15.791H7.92316V13.8659L19.1723 11.0533H32.5802H35.9093H60.5489L63.1468 17.5472L61.8597 25.2666ZM69.5144 23.6874C69.5144 24.158 69.5729 24.6254 69.6581 25.0882C69.6692 25.1466 69.6644 25.2066 69.6771 25.2666H65.0625L66.408 17.1934L64.006 11.1843L75.9752 12.901C81.5689 13.6938 86.8768 15.5273 91.7678 18.3558L91.8673 18.9496H86.8863V22.1081H92.39L92.9159 25.2666H85.1444C85.157 25.2082 85.1523 25.1466 85.1633 25.0882C85.2486 24.6254 85.307 24.158 85.307 23.6874C85.307 22.3134 84.9391 20.9489 84.2442 19.7408C82.8418 17.304 80.2234 15.791 77.4107 15.791C73.0567 15.791 69.5144 19.3333 69.5144 23.6874ZM77.4107 28.4252C75.7241 28.4252 74.1543 27.5187 73.3141 26.0578C72.8877 25.3187 72.6729 24.5212 72.6729 23.6874C72.6729 21.0753 74.7986 18.9496 77.4107 18.9496C79.0958 18.9496 80.6672 19.8561 81.5073 21.3169C81.9337 22.056 82.1485 22.8535 82.1485 23.6874C82.1485 24.5212 81.9322 25.3187 81.5058 26.0578C80.6672 27.5171 79.0974 28.4252 77.4107 28.4252Z" fill="black"/>
<path d="M47.3825 30.0046H41.0654V33.1631H47.3825V30.0046Z" fill="black"/>
<path d="M101.078 30.0046H94.7607V33.1631H101.078V30.0046Z" fill="black"/>
<path d="M78.9837 22.108H75.8252V25.2666H78.9837V22.108Z" fill="black"/>
<path d="M25.2889 22.108H22.1304V25.2666H25.2889V22.108Z" fill="black"/>
</svg>
