<svg width="65" height="59" viewBox="0 0 65 59" fill="none" xmlns="http://www.w3.org/2000/svg">
<path d="M30.8392 46.861H11.6131C9.06352 46.861 6.6184 45.8482 4.8156 44.0454C3.0128 42.2426 2 39.7975 2 37.2479V11.6131C2 9.06353 3.0128 6.6184 4.8156 4.8156C6.6184 3.0128 9.06352 2 11.6131 2H50.0653C52.6149 2 55.06 3.0128 56.8628 4.8156C58.6656 6.6184 59.6784 9.06353 59.6784 11.6131V26.0327M2 18.0218H59.6784M14.8174 34.0436H14.8495M27.6349 34.0436H34.0436M43.6566 46.861H62.8828M43.6566 46.861L53.2697 37.2479M43.6566 46.861L53.2697 56.4741" stroke="white" stroke-width="4" stroke-linecap="round" stroke-linejoin="round"/>
</svg>
