<svg width="57" height="57" viewBox="0 0 57 57" fill="none" xmlns="http://www.w3.org/2000/svg">
<path d="M2 54.6459V48.7964C2 45.6936 3.23258 42.7179 5.42658 40.5239C7.62059 38.3299 10.5963 37.0973 13.6991 37.0973H25.3982C28.501 37.0973 31.4767 38.3299 33.6707 40.5239C35.8647 42.7179 37.0973 45.6936 37.0973 48.7964V54.6459M40.022 2.38023C42.5386 3.02457 44.7691 4.48812 46.3619 6.54017C47.9547 8.59222 48.8193 11.116 48.8193 13.7137C48.8193 16.3114 47.9547 18.8352 46.3619 20.8873C44.7691 22.9393 42.5386 24.4029 40.022 25.0472M54.6459 54.646V48.7964C54.6311 46.2143 53.7624 43.7097 52.1753 41.6729C50.5881 39.6361 48.3718 38.1816 45.8716 37.5361M7.84955 13.6991C7.84955 16.8019 9.08212 19.7776 11.2761 21.9716C13.4701 24.1656 16.4458 25.3982 19.5486 25.3982C22.6514 25.3982 25.6271 24.1656 27.8211 21.9716C30.0152 19.7776 31.2477 16.8019 31.2477 13.6991C31.2477 10.5963 30.0152 7.62059 27.8211 5.42658C25.6271 3.23258 22.6514 2 19.5486 2C16.4458 2 13.4701 3.23258 11.2761 5.42658C9.08212 7.62059 7.84955 10.5963 7.84955 13.6991Z" stroke="white" stroke-width="4" stroke-linecap="round" stroke-linejoin="round"/>
</svg>
