<svg width="50" height="48" viewBox="0 0 50 48" fill="none" xmlns="http://www.w3.org/2000/svg">
<path d="M4.07459 25.7371L2.48584 13.976L2.48584 11.4898L4.07459 8.62127L6.55702 6.32641L20.6572 4.03156L24.0333 4.79651L27.7073 7.95194L32.8708 6.32641L37.9349 6.32641L41.6089 7.18699L43.4956 10.0556L45.978 24.3984L45.1836 30.2312L43.4956 32.8129L27.7073 35.299L26.9129 33.9603L26.9129 30.2312L14.7987 32.8129L9.23804 32.8129L6.55702 30.2312L4.07459 25.7371Z" fill="#DC0D0D"/>
<path d="M33.3672 12.3503C31.7316 10.9606 30.8516 9.06742 30.8847 7.76062H27.7073V10.3423L28.4023 13.1153C28.965 13.2747 30.2493 13.6316 30.8847 13.7846C31.5202 13.9376 31.6791 15.3783 31.6791 16.0795V20.3824V23.9203L28.4023 29.2749L26.615 32.0479L27.7073 35.0121L30.0904 34.4384C29.4946 34.0559 28.9783 32.6981 31.6791 30.3267C34.38 27.9554 35.7172 24.1752 36.0482 22.5816C36.3792 20.9879 35.0552 13.7846 33.3672 12.3503Z" fill="#B30A0A"/>
<path d="M9.73503 28.7013C8.04698 27.8407 4.1744 19.9043 4.0751 19.6174L3.57861 21.3386L4.0751 27.1713L7.15331 30.7093L9.73503 32.9085H12.5154C16.3217 32.3667 23.8154 31.2447 23.3387 31.0917C22.743 30.9005 11.4231 29.5618 9.73503 28.7013Z" fill="#B30A0A"/>
<path d="M10.9258 40.558C10.6279 40.4624 10.1315 34.8209 9.93286 34.3428L10.5286 33.0041C15.2287 32.3667 24.7083 31.0917 25.026 31.0917C25.3438 31.0917 25.9528 31.6017 26.2176 31.8567L27.4092 34.9165L43.396 33.3866L44.0911 39.4106L43.396 41.8011C38.8283 42.4704 29.6136 43.8091 29.2958 43.8091C28.978 43.8091 27.9056 42.9166 27.4092 42.4704L26.2176 39.4106C22.014 39.9843 13.4083 41.17 12.6139 41.323C11.6209 41.5142 11.2237 40.6537 10.9258 40.558Z" fill="#801111"/>
<path d="M15.0969 38.072C12.952 37.6895 11.9525 34.9803 11.7208 33.6735L11.3236 33.0042L10.0327 33.291L10.9264 40.3668L13.6074 41.323L24.1329 40.08L24.6294 39.5063L24.4308 39.315C22.2132 39.06 17.2417 38.4544 15.0969 38.072Z" fill="#640C0C"/>
<path d="M27.5089 35.6814C27.5089 35.5284 29.2963 35.0439 30.19 34.8208C29.9583 36.2551 29.7332 39.3531 30.6865 40.2711C31.6397 41.189 37.9683 41.4185 41.0134 41.4185C37.1408 42.0879 29.3162 43.4457 28.9984 43.5221C28.6807 43.5986 27.873 42.9166 27.5089 42.566C27.3765 41.546 27.1912 39.4296 27.5089 39.1237C27.9061 38.7412 27.5089 35.8726 27.5089 35.6814Z" fill="#640C0C"/>
<path d="M7.00059 17.489C6.82266 17.359 6.59318 17.3009 6.37185 17.3302C6.15051 17.3594 5.94573 17.4747 5.81068 17.6462C5.67564 17.8177 5.61537 18.0386 5.64573 18.2517C5.6761 18.4649 5.79585 18.6621 5.97393 18.792C6.15194 18.9221 6.38143 18.9802 6.60277 18.951C6.8241 18.9217 7.02887 18.8063 7.16384 18.6348C7.2989 18.4635 7.35925 18.2425 7.32888 18.0294C7.29852 17.8162 7.1786 17.6191 7.00059 17.489Z" fill="black"/>
<path d="M12.7956 7.39927L9.54854 7.82824C6.63265 8.21347 4.58595 10.8112 4.98597 13.6189L5.23805 15.3883C5.30181 15.8358 5.73028 16.1489 6.19509 16.0875C6.6598 16.0261 6.98496 15.6134 6.9212 15.1659L6.66912 13.3966C6.39642 11.4825 7.79166 9.71166 9.77946 9.44905L13.0265 9.02008C13.4912 8.95868 13.8164 8.546 13.7526 8.09849C13.6889 7.65099 13.2603 7.33788 12.7956 7.39927Z" fill="black"/>
<path d="M36.4834 5.50838L27.7318 6.66456C27.2327 5.89039 26.5847 5.20451 25.8043 4.64279C24.1527 3.45381 22.105 2.94938 20.0385 3.22238L8.22861 4.78261C3.96713 5.3456 0.975654 9.14227 1.56031 13.246L3.15913 24.4681C3.61781 27.6876 5.30822 30.5945 7.91895 32.6532L9.12998 33.6084C9.03827 33.909 9.00878 34.2321 9.05579 34.5621L9.84094 40.073C10.0192 41.3241 11.2212 42.2024 12.5205 42.0307L25.9857 40.2518L26.2859 42.3589C26.4641 43.61 27.6662 44.4883 28.9655 44.3167L42.7675 42.4933C44.0667 42.3216 44.9788 41.164 44.8005 39.9129L44.0154 34.402C43.9684 34.072 43.8496 33.7684 43.6771 33.5027L44.5763 32.2688C46.5148 29.6091 47.3298 26.3712 46.8711 23.1517L45.2723 11.9297C44.6877 7.82596 40.7449 4.94539 36.4834 5.50838ZM8.99542 31.3874C6.71744 29.5911 5.24249 27.0548 4.84228 24.2457L3.24347 13.0236C2.78613 9.81362 5.12605 6.84381 8.45953 6.40342L20.2694 4.8432C23.6029 4.40281 26.6826 6.62566 27.1346 9.79815L27.4463 11.9865L27.446 11.9865C25.0331 12.3053 23.3394 14.4549 23.6705 16.7784L24.4736 22.4153C24.5373 22.8628 24.9659 23.176 25.4306 23.1146C25.8953 23.0532 26.2205 22.6405 26.1567 22.193L25.3536 16.556C25.1499 15.1263 26.1922 13.8035 27.6769 13.6073C29.1616 13.4112 30.5353 14.4149 30.739 15.8446L31.176 18.9114C31.5872 21.798 30.8065 24.6662 28.9776 26.9874L26.6364 29.9588C26.5615 29.949 26.4841 29.9478 26.4056 29.9582L24.8909 30.1583L11.0888 31.9817L9.94118 32.1333L8.99542 31.3874ZM26.6724 37.8493C26.7234 38.2068 26.4628 38.5375 26.0916 38.5865L12.2896 40.4099C11.9184 40.4589 11.575 40.2081 11.5241 39.8506L11.3855 38.878L18.9597 37.8774C19.4244 37.816 19.7496 37.4033 19.6858 36.9558C19.6221 36.5083 19.1935 36.1952 18.7288 36.2566L11.1546 37.2572L10.7389 34.3397C10.688 33.9822 10.9485 33.6516 11.3197 33.6025L25.1218 31.7791C25.493 31.7301 25.8364 31.9809 25.8873 32.3384L26.6724 37.8493ZM42.7479 37.5419L38.0351 38.1646C37.5704 38.2259 37.2452 38.6386 37.309 39.0861C37.3727 39.5336 37.8013 39.8468 38.266 39.7854L42.9788 39.1627L43.1174 40.1353C43.1683 40.4928 42.9078 40.8234 42.5366 40.8725L28.7345 42.6959C28.3633 42.7449 28.0199 42.4941 27.969 42.1366L27.6106 39.6211C28.1622 39.13 28.4653 38.3963 28.3557 37.627L28.1017 35.844L35.339 34.8878L41.5667 34.0651C41.9379 34.016 42.2813 34.2669 42.3322 34.6244L42.7479 37.5419ZM45.1881 23.3741C45.5882 26.1832 44.8771 29.0083 43.1857 31.3292L42.4835 32.2927L41.3358 32.4443L35.108 33.267L27.8707 34.2232L27.5705 32.116C27.5468 31.9493 27.5044 31.7895 27.4465 31.6376L30.3313 27.9762C32.4345 25.3069 33.3322 22.0086 32.8593 18.689L32.4224 15.6222C32.1731 13.8729 30.8461 12.5166 29.1759 12.0888L28.8179 9.57577C28.7512 9.10792 28.6393 8.65365 28.4879 8.21599L36.7144 7.12918C40.0479 6.68878 43.1319 8.94203 43.5892 12.152L45.1881 23.3741Z" fill="black"/>
<path d="M35.2135 38.7793C35.0355 38.6492 34.806 38.5912 34.5847 38.6204C34.3634 38.6497 34.1586 38.765 34.0236 38.9365C33.8885 39.108 33.8283 39.3289 33.8586 39.542C33.889 39.7552 34.0087 39.9524 34.1868 40.0823C34.3648 40.2124 34.5943 40.2705 34.8157 40.2413C35.037 40.212 35.2418 40.0966 35.3767 39.9251C35.5118 39.7538 35.5721 39.5328 35.5418 39.3197C35.5114 39.1065 35.3916 38.9093 35.2135 38.7793Z" fill="black"/>
<path d="M36.0643 8.78375L33.8899 9.07101C33.4252 9.1324 33.1 9.54509 33.1638 9.99259C33.2276 10.4401 33.6561 10.7532 34.1208 10.6918L36.2952 10.4046C38.2829 10.142 40.122 11.4855 40.3947 13.3996L41.0547 18.0323C41.1184 18.4799 41.547 18.793 42.0117 18.7316C42.4764 18.6702 42.8016 18.2575 42.7378 17.81L42.0778 13.1772C41.6778 10.3695 38.9802 8.39852 36.0643 8.78375Z" fill="black"/>
</svg>
