<svg width="60" height="60" viewBox="0 0 60 60" fill="none" xmlns="http://www.w3.org/2000/svg">
<path d="M29.8384 40.9738V41.0016M29.8384 32.622C31.0904 32.6257 32.3072 32.2074 33.2923 31.4344C34.2773 30.6615 34.973 29.5791 35.2672 28.3621C35.5613 27.145 35.4366 25.8644 34.9133 24.7269C34.3899 23.5894 33.4985 22.6616 32.3829 22.0931C31.2754 21.5258 30.0085 21.3499 28.7883 21.594C27.5681 21.8382 26.4664 22.488 25.6625 23.4378M32.071 2.45827L47.5915 9.1091C48.9278 9.68259 49.994 10.7488 50.5703 12.0879L57.2183 27.6056C57.8308 29.031 57.8308 30.6456 57.2183 32.071L50.5675 47.5915C49.994 48.9278 48.9278 49.994 47.5887 50.5703L32.071 57.2183C30.6456 57.8308 29.031 57.8308 27.6056 57.2183L12.0851 50.5675C10.7464 49.9941 9.67969 48.9274 9.10631 47.5887L2.45827 32.071C2.15591 31.3655 2 30.6059 2 29.8383C2 29.0707 2.15591 28.3111 2.45827 27.6056L9.1091 12.0851C9.68259 10.7488 10.7488 9.68259 12.0879 9.10631L27.6056 2.45827C28.3111 2.15591 29.0707 2 29.8383 2C30.6059 2 31.3655 2.15591 32.071 2.45827Z" stroke="white" stroke-width="4" stroke-linecap="round" stroke-linejoin="round"/>
</svg>
