<svg width="103" height="52" viewBox="0 0 103 52" fill="none" xmlns="http://www.w3.org/2000/svg">
<path d="M53.9196 25.7196L17.2227 33.0932L14.6505 39.6095L12.5928 40.9813V44.4109L55.9773 39.6095L86.5009 35.6654L90.6164 36.5228L96.2753 31.0355L97.9901 24.6907V22.4614H72.9539L53.9196 25.7196Z" fill="white"/>
<path d="M16.0225 49.2124L13.2788 45.7828V44.5824L90.1021 34.6365L88.7302 36.8658L78.0984 41.4958L16.0225 49.2124Z" fill="#CD0000"/>
<path d="M31.4559 28.8063L30.77 19.5463L31.4559 18.6889C38.8296 17.7172 53.817 15.7737 54.7773 15.7737H61.465L69.1817 20.4037L71.9253 22.633L31.4559 28.8063Z" fill="#63A1FF"/>
<line x1="30.3373" y1="26.231" x2="66.4596" y2="18.0884" stroke="#BFD9FF"/>
<path d="M64.7117 17.9678L30.5164 25.3487L30.6111 23.4648L63.4019 16.7L64.7117 17.9678Z" fill="#BFD9FF"/>
<g style="mix-blend-mode:soft-light">
<path d="M70.8962 36.8659C29.0549 41.6673 24.082 35.4368 26.8257 31.7214L18.2516 33.2648L14.9935 39.4381L12.5928 41.1529L13.4502 46.2973L16.3653 49.2124L28.5405 47.1547C30.8726 43.3135 34.428 42.2389 35.9141 42.1817L57.8636 39.4381C79.6417 36.5801 112.737 32.0644 70.8962 36.8659Z" fill="black" fill-opacity="0.66"/>
</g>
<path d="M74.4214 42.9616C74.131 42.9978 73.9442 43.0165 73.8755 43.0228L15.747 50.2714C15.5987 50.2898 15.4477 50.2801 15.3025 50.2419C13.6934 49.8202 12.53 47.9634 11.7464 44.5645C11.2303 42.3266 11.0633 40.2135 11.056 40.1241C11.0072 39.4971 11.4599 38.9426 12.0841 38.8648L14.1268 38.6101L16.7962 32.0939C16.9437 31.735 17.2575 31.472 17.6363 31.3892L30.1888 28.669L28.9139 18.4454C28.8334 17.8 29.2913 17.2117 29.9359 17.1313L55.1162 13.9914C62.1848 13.1099 70.5436 19.69 72.3989 21.2382C84.6604 20.7723 99.0277 21.2266 99.1735 21.2316C99.4968 21.2423 99.8019 21.3856 100.017 21.6275C100.231 21.8702 100.337 22.1906 100.308 22.5123C99.6383 30.0236 94.8076 35.9609 86.3381 39.6806C81.112 41.9768 76.0833 42.7544 74.4214 42.9616ZM15.7567 47.8976L73.6024 40.6843C73.6154 40.6827 73.6283 40.6811 73.6405 40.6803C73.6986 40.6754 79.5328 40.1108 85.4434 37.5023C92.6691 34.3144 96.8222 29.6236 97.8071 23.5483C93.9553 23.4488 82.1825 23.2022 72.0329 23.6093C71.7309 23.6207 71.4353 23.5163 71.2082 23.3168C71.1197 23.2391 62.1888 15.4827 55.4076 16.3283L31.3958 19.3226L32.6582 29.4458C32.7336 30.0509 32.3351 30.6132 31.7397 30.7423L18.7408 33.5599L16.0447 40.1405C15.8837 40.5334 15.5229 40.8093 15.1009 40.8619L13.5235 41.0586C13.622 41.8423 13.788 42.9449 14.0459 44.0593C14.637 46.6082 15.3428 47.6304 15.7567 47.8976Z" fill="black"/>
<path d="M31.6352 30.7602C31.0262 30.8361 30.4542 30.428 30.3347 29.8168C30.2111 29.1782 30.6274 28.5604 31.2658 28.436C31.5673 28.3776 61.5365 22.5497 71.8406 21.2648C72.4853 21.1844 73.0736 21.6422 73.154 22.2869C73.2345 22.9323 72.7766 23.5206 72.132 23.601C61.9061 24.8761 32.0161 30.6887 31.7154 30.7471C31.6889 30.7519 31.6618 30.7569 31.6352 30.7602Z" fill="black"/>
<path d="M40.2069 29.1202C39.5949 29.1965 39.0217 28.7847 38.9057 28.1707L36.892 17.5259C36.7714 16.887 37.191 16.2711 37.8299 16.1505C38.4669 16.0332 39.0847 16.4495 39.2053 17.0884L41.219 27.7332C41.3396 28.3721 40.92 28.988 40.2811 29.1086C40.2562 29.1132 40.2312 29.1171 40.2069 29.1202Z" fill="black"/>
<path d="M48.1428 27.6385C47.5315 27.7148 46.9575 27.303 46.8416 26.689L44.9179 16.5248C44.7973 15.8859 45.217 15.2707 45.8558 15.1494C46.4979 15.03 47.1098 15.4485 47.2312 16.0873L49.1548 26.2508C49.2754 26.8897 48.8558 27.5056 48.217 27.627C48.1921 27.6316 48.1678 27.6354 48.1428 27.6385Z" fill="black"/>
<path d="M56.0863 26.1988C55.4751 26.275 54.9018 25.8632 54.7851 25.2493L52.9462 15.5238C52.8249 14.885 53.2453 14.269 53.8834 14.1485C54.5219 14.031 55.1382 14.4475 55.2588 15.0864L57.0985 24.8118C57.2198 25.4506 56.7994 26.0666 56.1605 26.1872C56.1364 26.1917 56.1114 26.1956 56.0863 26.1988Z" fill="black"/>
<path d="M30.649 22.8423L25.3282 23.5058C24.8583 23.5643 24.3999 23.3366 24.1628 22.9269L22.3151 19.731C22.1172 19.3889 22.1037 18.9706 22.2797 18.6174C22.4557 18.2643 22.796 18.0219 23.1876 17.9731L29.9369 17.1314C30.5823 17.0509 31.1705 17.5088 31.251 18.1542C31.3314 18.7989 30.8736 19.3871 30.2282 19.4676L25.2418 20.0894L25.8108 21.0731L30.3577 20.5061C31.0023 20.4257 31.5906 20.8835 31.6711 21.5289C31.7515 22.1736 31.2944 22.7618 30.649 22.8423Z" fill="black"/>
<path d="M26.8543 19.8892C26.2089 19.9697 25.6206 19.5118 25.5402 18.8672L24.9332 13.9994C24.8528 13.3548 25.3106 12.7665 25.9561 12.686C26.6007 12.6056 27.189 13.0634 27.2694 13.7081L27.8764 18.5759C27.9568 19.2205 27.499 19.8088 26.8543 19.8892Z" fill="black"/>
<path d="M26.8953 14.9405L25.5976 15.1024C23.9517 15.3076 22.4451 14.1351 22.2399 12.4892C22.0346 10.8433 23.2072 9.33754 24.8531 9.1323L26.1508 8.97047C27.7975 8.76514 29.3032 9.93695 29.5084 11.5828C29.7136 13.2287 28.5419 14.7352 26.8953 14.9405ZM25.1444 11.4685C24.7863 11.5131 24.5315 11.8406 24.576 12.1979C24.6207 12.556 24.9482 12.8108 25.3062 12.7662L26.6039 12.6044C26.962 12.5597 27.2169 12.2322 27.1722 11.8742C27.1277 11.5169 26.8002 11.262 26.4421 11.3067L25.1444 11.4685Z" fill="black"/>
<path d="M96.8863 23.5121C96.567 23.5519 96.2339 23.4622 95.9717 23.2355C95.4795 22.8113 95.4246 22.0677 95.8488 21.5755C97.5493 19.604 98.249 18.0266 97.7698 17.2487C97.3635 16.5907 94.9795 14.598 81.4053 16.5849C73.8506 17.6914 66.6197 19.4941 66.5471 19.5124C65.9151 19.67 65.2775 19.287 65.1194 18.6567C64.9612 18.0255 65.3447 17.3863 65.975 17.2282C66.0484 17.2098 73.394 15.3797 81.0639 14.2557C95.5568 12.1327 98.6819 14.2421 99.7737 16.0137C101.433 18.7059 98.5713 22.0235 97.631 23.1135C97.4334 23.3428 97.1653 23.4773 96.8863 23.5121Z" fill="black"/>
<path d="M91.9419 23.4206C91.8537 23.4316 91.7636 23.4328 91.672 23.4226C91.025 23.3551 90.5567 22.7757 90.6244 22.1296L91.4304 14.4522C91.4988 13.806 92.0773 13.337 92.7242 13.4046C93.3711 13.4721 93.8403 14.0521 93.7718 14.6983L92.9657 22.375C92.9076 22.9304 92.4726 23.3544 91.9419 23.4206Z" fill="black"/>
<path d="M83.6954 23.3752C83.6658 23.3789 83.6359 23.381 83.606 23.3825C82.9568 23.414 82.4049 22.9138 82.3726 22.2647L82.0284 15.2071C81.9968 14.5579 82.5021 14.0038 83.147 13.9744C83.797 13.9427 84.3488 14.4429 84.3804 15.0929L84.7246 22.1498C84.7548 22.769 84.3006 23.2997 83.6954 23.3752Z" fill="black"/>
<path d="M12.3758 41.202L7.05425 41.8656C6.40957 41.946 5.82131 41.4882 5.74083 40.8428C5.66044 40.1981 6.11825 39.6098 6.76292 39.5294L12.0845 38.8658C12.7292 38.7854 13.3175 39.2433 13.3978 39.8879C13.4783 40.5334 13.0213 41.1215 12.3758 41.202Z" fill="black"/>
<path d="M13.0706 45.5956L5.46526 46.544C4.81982 46.6245 4.23147 46.1659 4.15108 45.5213C4.07069 44.8766 4.52841 44.2876 5.17384 44.2071L12.7792 43.2587C13.4238 43.1783 14.0122 43.6369 14.0926 44.2816C14.173 44.9262 13.7152 45.5152 13.0706 45.5956Z" fill="black"/>
<path d="M92.8115 35.6511L13.0697 45.5949C12.4242 45.6754 11.836 45.2176 11.7555 44.5721C11.6751 43.9275 12.1329 43.3392 12.7783 43.2587L92.5201 33.3149C93.1648 33.2345 93.7531 33.6924 93.8335 34.337C93.914 34.9825 93.4561 35.5707 92.8115 35.6511Z" fill="black"/>
<path d="M48.8261 35.7338L38.6102 37.0077C37.9647 37.0882 37.3765 36.6304 37.296 35.985C37.2156 35.3403 37.6734 34.752 38.3189 34.6716L48.5348 33.3976C49.1795 33.3172 49.7677 33.7751 49.8481 34.4197C49.9286 35.0652 49.4708 35.6534 48.8261 35.7338Z" fill="black"/>
<path d="M65.5102 31.8084L62.2648 32.2131C61.6201 32.2934 61.0318 31.8349 60.9514 31.1902C60.871 30.5455 61.3287 29.9565 61.9734 29.8761L65.2188 29.4714C65.8635 29.391 66.4518 29.8496 66.5322 30.4943C66.6126 31.1389 66.1549 31.728 65.5102 31.8084Z" fill="black"/>
<path d="M76.2832 30.4652L73.0385 30.8698C72.3931 30.9502 71.8047 30.4917 71.7243 29.847C71.6439 29.2023 72.1016 28.6133 72.7471 28.5328L75.9917 28.1282C76.6364 28.0478 77.2248 28.5064 77.3052 29.1511C77.3855 29.7957 76.9278 30.3848 76.2832 30.4652Z" fill="black"/>
<path d="M87.0558 29.1217L83.8112 29.5263C83.1665 29.6067 82.5781 29.1482 82.4978 28.5035C82.4174 27.8588 82.8751 27.2698 83.5198 27.1894L86.7644 26.7848C87.4098 26.7043 87.9982 27.1629 88.0786 27.8076C88.159 28.4522 87.7013 29.0413 87.0558 29.1217Z" fill="black"/>
<path d="M22.5947 44.407C21.95 44.4874 21.3617 44.0296 21.2812 43.3841C20.6282 38.1469 24.5046 30.6178 24.6703 30.2999C24.9705 29.7236 25.6806 29.4992 26.2577 29.7993C26.8347 30.0987 27.0585 30.8097 26.7591 31.3867C26.7117 31.4775 23.056 38.5907 23.6175 43.0936C23.6979 43.7382 23.2401 44.3265 22.5947 44.407Z" fill="black"/>
</svg>
