<svg width="301" height="151" viewBox="0 0 301 151" fill="none" xmlns="http://www.w3.org/2000/svg">
<path d="M157.219 74.9926L50.2188 96.4926L42.7188 115.493L36.7188 119.493V129.493L163.219 115.493L252.219 103.993L264.219 106.493L280.719 90.4926L285.719 71.9926V65.4926H212.719L157.219 74.9926Z" fill="#535353"/>
<path d="M46.7188 143.493L38.7188 133.493V129.993L262.719 100.993L258.719 107.493L227.719 120.993L46.7188 143.493Z" fill="#CD0000"/>
<path d="M91.7188 83.9926L89.7188 56.9926L91.7188 54.4926C113.219 51.6592 156.919 45.9926 159.719 45.9926H179.219L201.719 59.4926L209.719 65.9926L91.7188 83.9926Z" fill="#63A1FF"/>
<line x1="88.669" y1="77.4191" x2="193.994" y2="53.677" stroke="#BFD9FF"/>
<path d="M188.686 52.3905L88.9798 73.9119L89.2559 68.4188L184.867 48.6941L188.686 52.3905Z" fill="#BFD9FF"/>
<g style="mix-blend-mode:soft-light">
<path d="M206.719 107.493C84.7188 121.493 70.2188 103.326 78.2188 92.4926L53.2188 96.9926L43.7188 114.993L36.7188 119.993L39.2188 134.993L47.7188 143.493L83.2188 137.493C90.0187 126.293 100.385 123.159 104.719 122.993L168.719 114.993C232.219 106.659 328.719 93.4926 206.719 107.493Z" fill="black" fill-opacity="0.66"/>
</g>
<path d="M216.999 125.267C216.152 125.373 215.607 125.427 215.407 125.445L45.9167 146.581C45.4844 146.635 45.0442 146.606 44.6206 146.495C39.929 145.265 36.5367 139.851 34.2519 129.941C32.7471 123.415 32.2602 117.254 32.2389 116.993C32.0965 115.165 33.4167 113.549 35.2365 113.322L41.1927 112.579L48.976 93.579C49.4061 92.5327 50.3212 91.7657 51.4257 91.5245L88.0259 83.5927L84.3087 53.7831C84.074 51.9011 85.4089 50.1859 87.2886 49.9515L160.709 40.796C181.319 38.2259 205.692 57.4121 211.101 61.9263C246.853 60.5679 288.745 61.8925 289.17 61.907C290.113 61.9381 291.002 62.3562 291.628 63.0615C292.255 63.769 292.563 64.7031 292.477 65.6413C290.526 87.5427 276.44 104.854 251.745 115.7C236.507 122.395 221.844 124.663 216.999 125.267ZM45.9451 139.659L214.611 118.627C214.648 118.622 214.686 118.617 214.722 118.615C214.891 118.601 231.902 116.955 249.136 109.349C270.205 100.054 282.314 86.3763 285.186 68.662C273.955 68.3719 239.628 67.6527 210.034 68.8398C209.154 68.8731 208.292 68.5686 207.63 67.9871C207.372 67.7604 181.331 45.1444 161.558 47.6101L91.5453 56.3407L95.2261 85.8577C95.4461 87.6222 94.2841 89.2618 92.5482 89.6381L54.6461 97.8537L46.7849 117.041C46.3155 118.187 45.2632 118.991 44.033 119.145L39.4334 119.718C39.7206 122.003 40.2048 125.218 40.9566 128.468C42.6803 135.9 44.7381 138.88 45.9451 139.659Z" fill="black"/>
<path d="M92.2418 89.6899C90.4662 89.9113 88.7983 88.7213 88.45 86.9391C88.0895 85.0773 89.3034 83.2759 91.1648 82.9132C92.044 82.7428 179.428 65.75 209.472 62.0035C211.352 61.7691 213.067 63.104 213.302 64.9837C213.536 66.8656 212.201 68.5809 210.322 68.8153C180.505 72.5333 93.3526 89.4816 92.4756 89.6517C92.3986 89.6658 92.3193 89.6802 92.2418 89.6899Z" fill="black"/>
<path d="M117.234 84.9075C115.449 85.13 113.778 83.9293 113.44 82.139L107.568 51.101C107.217 49.2381 108.44 47.4423 110.303 47.0906C112.16 46.7487 113.962 47.9626 114.313 49.8254L120.185 80.8634C120.537 82.7263 119.313 84.5222 117.45 84.8738C117.378 84.8873 117.305 84.8987 117.234 84.9075Z" fill="black"/>
<path d="M140.377 80.5876C138.595 80.8098 136.921 79.6093 136.583 77.819L130.974 48.1823C130.622 46.3194 131.846 44.5258 133.709 44.1719C135.581 43.8237 137.365 45.0441 137.719 46.9067L143.328 76.5412C143.679 78.4041 142.456 80.2 140.593 80.5538C140.521 80.5674 140.45 80.5784 140.377 80.5876Z" fill="black"/>
<path d="M163.535 76.3896C161.753 76.6118 160.082 75.4111 159.741 73.6211L154.38 45.2636C154.026 43.4011 155.252 41.6049 157.112 41.2536C158.974 40.9111 160.771 42.1255 161.123 43.9883L166.487 72.3455C166.84 74.2081 165.615 76.0042 163.752 76.3559C163.681 76.3691 163.609 76.3805 163.535 76.3896Z" fill="black"/>
<path d="M89.3648 66.6031L73.8504 68.5377C72.4805 68.7085 71.1438 68.0445 70.4523 66.8499L65.0649 57.5312C64.4881 56.5338 64.4485 55.3141 64.9617 54.2844C65.4749 53.2547 66.4673 52.5479 67.6089 52.4055L87.2884 49.9515C89.1703 49.7168 90.8855 51.0517 91.1202 52.9337C91.3546 54.8134 90.0197 56.5286 88.1378 56.7633L73.5987 58.5763L75.2575 61.4445L88.5154 59.7913C90.3951 59.5569 92.1103 60.8917 92.345 62.7737C92.5794 64.6534 91.2467 66.3684 89.3648 66.6031Z" fill="black"/>
<path d="M78.3007 57.9923C76.4188 58.2269 74.7036 56.8921 74.4692 55.0123L72.6993 40.8191C72.4649 38.9393 73.7998 37.2241 75.6817 36.9894C77.5614 36.755 79.2767 38.0899 79.5111 39.9696L81.281 54.1629C81.5154 56.0426 80.1805 57.7579 78.3007 57.9923Z" fill="black"/>
<path d="M78.4217 43.5632L74.6378 44.0351C69.8388 44.6335 65.446 41.2148 64.8475 36.4157C64.2491 31.6167 67.6681 27.2261 72.4671 26.6276L76.251 26.1558C81.0522 25.5571 85.4425 28.9739 86.041 33.7729C86.6394 38.572 83.2229 42.9645 78.4217 43.5632ZM73.3165 33.4394C72.2725 33.5696 71.5294 34.5245 71.6593 35.5663C71.7895 36.6104 72.7443 37.3535 73.7884 37.2233L77.5722 36.7514C78.6163 36.6212 79.3594 35.6664 79.2292 34.6223C79.0993 33.5805 78.1444 32.8374 77.1004 32.9676L73.3165 33.4394Z" fill="black"/>
<path d="M282.501 68.5556C281.57 68.6717 280.599 68.4101 279.834 67.7491C278.399 66.5121 278.239 64.344 279.476 62.9088C284.434 57.1602 286.474 52.5611 285.077 50.2929C283.892 48.3741 276.941 42.564 237.362 48.3573C215.334 51.5836 194.25 56.8398 194.038 56.8933C192.196 57.3526 190.336 56.2361 189.875 54.3981C189.414 52.5579 190.532 50.6941 192.37 50.2331C192.584 50.1794 214.002 44.8432 236.366 41.5659C278.624 35.3756 287.736 41.5263 290.92 46.6918C295.757 54.5416 287.414 64.2151 284.672 67.3934C284.096 68.0618 283.314 68.4542 282.501 68.5556Z" fill="black"/>
<path d="M268.083 68.2892C267.826 68.3213 267.563 68.3248 267.296 68.2951C265.41 68.0981 264.044 66.4089 264.241 64.5249L266.592 42.1393C266.791 40.255 268.478 38.8876 270.364 39.0846C272.25 39.2816 273.618 40.9727 273.419 42.857L271.068 65.2404C270.899 66.8598 269.63 68.0963 268.083 68.2892Z" fill="black"/>
<path d="M244.038 68.1564C243.951 68.1671 243.864 68.1735 243.777 68.1776C241.884 68.2696 240.275 66.8112 240.181 64.9185L239.177 44.34C239.085 42.447 240.558 40.8316 242.439 40.7457C244.334 40.6534 245.943 42.1119 246.035 44.0071L247.039 64.5833C247.127 66.389 245.802 67.9363 244.038 68.1564Z" fill="black"/>
<path d="M36.0862 120.136L20.5696 122.071C18.6899 122.305 16.9747 120.97 16.74 119.088C16.5056 117.208 17.8405 115.493 19.7202 115.259L35.2368 113.324C37.1165 113.089 38.8318 114.424 39.0662 116.304C39.3008 118.186 37.9682 119.901 36.0862 120.136Z" fill="black"/>
<path d="M38.1113 132.946L15.9359 135.712C14.0539 135.946 12.3384 134.609 12.104 132.73C11.8696 130.85 13.2042 129.132 15.0862 128.898L37.2616 126.132C39.1414 125.898 40.8569 127.235 41.0913 129.115C41.3257 130.995 39.9911 132.712 38.1113 132.946Z" fill="black"/>
<path d="M270.619 103.951L38.1089 132.944C36.2269 133.179 34.5117 131.844 34.277 129.962C34.0426 128.083 35.3775 126.367 37.2595 126.133L269.769 97.1388C271.649 96.9044 273.364 98.2393 273.599 100.119C273.833 102.001 272.498 103.716 270.619 103.951Z" fill="black"/>
<path d="M142.368 104.192L112.581 107.907C110.699 108.141 108.984 106.807 108.749 104.925C108.515 103.045 109.849 101.33 111.731 101.095L141.519 97.3804C143.399 97.146 145.114 98.4809 145.348 100.361C145.583 102.243 144.248 103.958 142.368 104.192Z" fill="black"/>
<path d="M191.015 92.7458L181.552 93.9258C179.672 94.1602 177.957 92.8231 177.723 90.9434C177.488 89.0637 178.823 87.3462 180.703 87.1118L190.165 85.9318C192.045 85.6974 193.761 87.0345 193.995 88.9142C194.229 90.794 192.895 92.5114 191.015 92.7458Z" fill="black"/>
<path d="M222.425 88.829L212.964 90.0088C211.083 90.2434 209.367 88.9063 209.133 87.0266C208.898 85.1469 210.233 83.4294 212.115 83.1947L221.575 82.015C223.455 81.7806 225.171 83.1177 225.405 84.9974C225.64 86.8772 224.305 88.5946 222.425 88.829Z" fill="black"/>
<path d="M253.835 84.9122L244.375 86.0919C242.495 86.3263 240.779 84.9892 240.545 83.1095C240.311 81.2298 241.645 79.5123 243.525 79.2779L252.986 78.0982C254.868 77.8635 256.583 79.2006 256.817 81.0803C257.052 82.96 255.717 84.6775 253.835 84.9122Z" fill="black"/>
<path d="M65.8838 129.481C64.004 129.715 62.2888 128.381 62.0541 126.499C60.1499 111.228 71.4526 89.2747 71.9358 88.3478C72.8113 86.6673 74.8818 86.013 76.5645 86.8882C78.2469 87.7612 78.8993 89.8341 78.0263 91.5165C77.8883 91.7814 67.229 112.522 68.8662 125.651C69.1006 127.531 67.7657 129.246 65.8838 129.481Z" fill="black"/>
</svg>
