<svg width="51" height="57" viewBox="0 0 51 57" fill="none" xmlns="http://www.w3.org/2000/svg">
<path d="M7.84955 42.9468C9.40094 42.9468 10.8888 43.5631 11.9858 44.6601C13.0828 45.7571 13.6991 47.245 13.6991 48.7964C13.6991 50.3478 13.0828 51.8356 11.9858 52.9326C10.8888 54.0296 9.40094 54.6459 7.84955 54.6459C6.29815 54.6459 4.81029 54.0296 3.71329 52.9326C2.61629 51.8356 2 50.3478 2 48.7964C2 47.245 2.61629 45.7571 3.71329 44.6601C4.81029 43.5631 6.29815 42.9468 7.84955 42.9468ZM7.84955 42.9468H40.022M7.84955 42.9468V2H2M40.022 42.9468C41.5734 42.9468 43.0613 43.5631 44.1583 44.6601C45.2553 45.7571 45.8716 47.245 45.8716 48.7964C45.8716 50.3478 45.2553 51.8356 44.1583 52.9326C43.0613 54.0296 41.5734 54.6459 40.022 54.6459C38.4707 54.6459 36.9828 54.0296 35.8858 52.9326C34.7888 51.8356 34.1725 50.3478 34.1725 48.7964C34.1725 47.245 34.7888 45.7571 35.8858 44.6601C36.9828 43.5631 38.4707 42.9468 40.022 42.9468ZM7.84955 7.84955L48.7964 10.7743L45.8716 31.2477H7.84955" stroke="white" stroke-width="4" stroke-linecap="round" stroke-linejoin="round"/>
</svg>
