<svg width="57" height="57" viewBox="0 0 57 57" fill="none" xmlns="http://www.w3.org/2000/svg">
<path d="M33.7835 21.7423C33.064 20.3384 31.7128 19.4931 30.2738 19.5487H26.3721C24.2195 19.5487 22.4734 21.5083 22.4734 23.9359C22.4734 26.3547 24.2195 28.3201 26.3721 28.3201H30.2738C32.4264 28.3201 34.1725 30.2826 34.1725 32.7073C34.1725 35.129 32.4264 37.0915 30.2738 37.0915H26.3721C24.9331 37.1471 23.5819 36.3018 22.8624 34.8979M28.323 13.6991V19.5486M28.323 37.0973V42.9468M2 28.323C2 31.7797 2.68086 35.2027 4.00372 38.3963C5.32657 41.59 7.2655 44.4918 9.70981 46.9361C12.1541 49.3804 15.0559 51.3193 18.2496 52.6422C21.4432 53.9651 24.8662 54.6459 28.323 54.6459C31.7797 54.6459 35.2027 53.9651 38.3963 52.6422C41.59 51.3193 44.4918 49.3804 46.9361 46.9361C49.3804 44.4918 51.3193 41.59 52.6422 38.3963C53.9651 35.2027 54.6459 31.7797 54.6459 28.323C54.6459 24.8662 53.9651 21.4432 52.6422 18.2496C51.3193 15.0559 49.3804 12.1541 46.9361 9.70982C44.4918 7.2655 41.59 5.32657 38.3963 4.00372C35.2027 2.68086 31.7797 2 28.323 2C24.8662 2 21.4432 2.68086 18.2496 4.00372C15.0559 5.32657 12.1541 7.2655 9.70981 9.70982C7.2655 12.1541 5.32657 15.0559 4.00372 18.2496C2.68086 21.4432 2 24.8662 2 28.323Z" stroke="white" stroke-width="4" stroke-linecap="round" stroke-linejoin="round"/>
</svg>
