<svg width="226" height="152" viewBox="0 0 226 152" fill="none" xmlns="http://www.w3.org/2000/svg">
<path d="M8.49982 75L11.9998 61L16.5001 54L31.0001 47L71.0001 51L148.5 15H160.5V23.5L134 51V56.5H179L191 51L219 17.5V38.5L206.5 99L194 103H148.5L172.5 136.5L169 142.5L160.5 145L93.5001 107.5L79.5001 99L27.5001 95L8.49982 83V75Z" fill="#DD9E40"/>
<path d="M131 56L76.5001 48.5L106 28L157 13.5L159.5 18.5L155 28L131 56Z" fill="#C5882D"/>
<path d="M191.5 84.5C203.1 74.9 212 42.8333 215 28L218 23L215 60.5L209.5 93.5L198 104L173.5 106L148 104L142 94.5C153.667 95.1667 179.9 94.1 191.5 84.5Z" fill="#C5882D"/>
<path d="M168.5 143C149.7 116.2 108.5 84 84.5001 79.5H122.5L137.5 89L166 126L168.5 143Z" fill="#C5882D"/>
<path d="M44.0001 59.5C15.0001 62 14.6667 78.3333 12.0001 86.5L8.50006 78.5L12.0001 59.5L21.5001 50H50.5001L142.5 58C126.5 58 68.3914 57.3973 44.0001 59.5Z" fill="#F1C179"/>
<path d="M13.3373 51.1453C18.7838 46.331 25.8079 43.9193 33.1205 44.367L66.3261 46.4003C114.475 21.0561 144.814 8.78474 156.408 10.2279C161.675 10.824 163.408 13.7947 163.972 15.5122C164.923 18.4084 167.033 24.9544 140.277 50.9285L181.938 53.4795L218.533 14.2485C219.667 13.0376 221.451 12.6947 222.949 13.4171C224.444 14.1393 225.299 15.7455 225.058 17.391L215.36 82.8762C214.439 97.9253 201.464 109.417 186.438 108.497L155.423 106.598C167.251 121.349 176.989 136.481 173.992 143.417C173.253 145.127 171.201 147.987 165.749 147.927C165.48 147.926 165.203 147.913 164.919 147.895C149.492 146.951 109.854 122.021 80.2954 101.998L29.7773 98.9046C14.7282 97.9831 3.23328 84.9927 4.15477 69.9436C4.38375 66.2041 5.37645 62.5873 7.09943 59.2051C8.59984 56.2311 10.6915 53.5288 13.3373 51.1453ZM156.928 18.1202C156.924 18.12 156.604 17.8838 155.544 17.7657C150.307 17.1145 133.505 20.3787 81.0306 47.3045L129.94 50.2993C157.771 24.2657 156.825 18.1215 156.928 18.1202ZM165.383 140.325L165.83 140.345C166.494 140.352 166.878 140.28 167.022 140.289C167.041 140.29 167.056 140.291 167.064 140.295C168.092 136.415 158.582 122.152 144.105 104.936C143.981 104.792 143.857 104.644 143.733 104.496C137.977 97.6732 131.473 90.4061 124.511 83.1298L60.798 79.2286C91.6028 101.049 148.77 139.308 165.383 140.325ZM30.2446 91.3349L68.136 93.655C56.7916 85.7762 48.3339 79.6469 45.6682 77.7019C44.308 76.7106 43.7669 74.9374 44.335 73.3538C44.907 71.7665 46.4549 70.7482 48.1354 70.8511L126.45 75.6465C127.397 75.7044 128.291 76.1201 128.952 76.8026C134.095 82.1477 141.466 90.0226 148.786 98.5934L186.901 100.927C197.753 101.592 207.125 93.287 207.825 82.0919L215.775 28.3265L186.267 59.9638C185.495 60.7903 184.393 61.2281 183.265 61.1591L32.6608 51.9372C27.3732 51.6135 22.2937 53.3502 18.3932 56.8041C18.1319 57.0389 17.9364 57.3157 17.6897 57.5589L32.6026 58.472C34.6919 58.6 36.2837 60.3995 36.1558 62.4888C36.0276 64.5819 34.2283 66.1699 32.139 66.042L13.0022 64.8702C12.3412 66.6685 11.8487 68.5076 11.7321 70.4114C11.0627 81.2817 19.3665 90.6688 30.2446 91.3349Z" fill="black"/>
<path d="M181.542 67.4665C183.631 67.5944 185.223 69.3939 185.095 71.4833L184.638 78.9397C184.51 81.029 182.711 82.6208 180.622 82.4929C178.532 82.365 176.94 80.5655 177.068 78.4761L177.525 71.0197C177.653 68.9304 179.452 67.3386 181.542 67.4665Z" fill="black"/>
<path d="M166.402 66.5395C168.491 66.6674 170.083 68.4669 169.955 70.5562L169.498 78.0126C169.37 80.1019 167.571 81.6938 165.482 81.5659C163.392 81.4379 161.801 79.6384 161.928 77.5491L162.385 70.0927C162.513 68.0034 164.312 66.4115 166.402 66.5395Z" fill="black"/>
<path d="M151.262 65.6124C153.351 65.7403 154.943 67.5398 154.815 69.6292L154.359 77.0856C154.231 79.1749 152.431 80.7667 150.342 80.6388C148.252 80.5109 146.661 78.7114 146.789 76.622L147.245 69.1656C147.373 67.0763 149.173 65.4845 151.262 65.6124Z" fill="black"/>
<path d="M136.122 64.6854C138.211 64.8133 139.803 66.6128 139.675 68.7021L139.218 76.1585C139.091 78.2479 137.291 79.8397 135.202 79.7118C133.112 79.5838 131.521 77.7843 131.649 75.695L132.105 68.2386C132.233 66.1493 134.033 64.5574 136.122 64.6854Z" fill="black"/>
</svg>
