<svg width="58" height="59" viewBox="0 0 58 59" fill="none" xmlns="http://www.w3.org/2000/svg">
<path d="M23.412 34.998L55.5845 2.8255M23.412 34.998L33.6486 55.4714C33.7769 55.7514 33.9829 55.9887 34.2422 56.1551C34.5014 56.3214 34.803 56.4099 35.111 56.4099C35.419 56.4099 35.7205 56.3214 35.9798 56.1551C36.239 55.9887 36.445 55.7514 36.5734 55.4714L55.5845 2.8255M23.412 34.998L2.93848 24.7613C2.65845 24.633 2.42116 24.427 2.2548 24.1677C2.08844 23.9085 2 23.6069 2 23.2989C2 22.9909 2.08844 22.6893 2.2548 22.4301C2.42116 22.1709 2.65845 21.9648 2.93848 21.8365L55.5845 2.8255" stroke="white" stroke-width="4" stroke-linecap="round" stroke-linejoin="round"/>
</svg>
