<svg width="202" height="241" viewBox="0 0 202 241" fill="none" xmlns="http://www.w3.org/2000/svg">
<circle cx="107.644" cy="123" r="60" fill="#6D4304"/>
<path d="M62.644 143L58.644 117L60.644 106.5L71.144 89L89.644 75.5H108.644L129.644 80L146.144 93L155.144 111.5L152.644 137L143.144 155.5L125.644 168L97.144 170L78.144 161L62.644 143Z" fill="#3E77CE"/>
<path d="M101.644 43.5L107.144 21L116.144 19.5C129.644 24.1667 157.344 33.8 160.144 35C162.944 36.2 166.311 38.5 167.644 39.5L164.644 60L161.644 66.5L153.144 65.5L101.644 43.5Z" fill="#362101"/>
<path d="M114.144 199.5L54.144 180.5C51.3107 186.833 45.644 200 45.644 202C45.644 204 47.3107 207.167 48.144 208.5L97.144 224.5L104.644 223.5L109.644 213.5L114.144 199.5Z" fill="#362101"/>
<path d="M96.144 46L77.644 73L122.144 68L159.144 94.5L163.144 90.5V73L159.144 65L96.144 46Z" fill="#6D4304"/>
<path d="M51.144 177.5V154C69.144 163.5 105.544 182.5 107.144 182.5H130.644L125.144 194L114.644 201L51.144 177.5Z" fill="#6D4304"/>
<path d="M34.644 114.5L51.644 120.5C53.3107 113.167 56.644 98.2 56.644 97V87.5H41.644L34.644 104V114.5Z" fill="#6D4304"/>
<path d="M75.6438 108C84.0438 80.8 109.144 76.6667 120.644 78L108.144 74.5L88.144 78L65.144 97L60.144 115.5L63.144 142.5L85.644 166H92.1438C83.1438 158 67.2438 135.2 75.6438 108Z" fill="#99C2FF"/>
<g style="mix-blend-mode:soft-light">
<path d="M48.644 207.5L66.644 213.5C58.0671 177.144 50.955 136.016 62.144 106.5C76.961 67.4143 114.577 43.7942 132.144 30.5L126.144 24L111.144 19.5L100.644 43.5L86.144 57L72.644 73.5L54.144 88L42.644 85.5L37.144 93L33.644 113L42.644 116.5L45.144 121L54.144 167V180.5L45.144 200.5L48.644 207.5Z" fill="white" fill-opacity="0.63"/>
</g>
<g style="mix-blend-mode:soft-light">
<path d="M142.144 135C153.028 102.752 157.477 56.6667 154.644 36H161.144L168.144 43.5L161.144 63.5L163.644 71.5V98.5L168.144 135L154.644 161.5L136.644 178L119.144 198.5L113.144 202L106.644 221L102.144 224.5L85.144 221C108.144 204 128.644 175 142.144 135Z" fill="#3C3C3C" fill-opacity="0.88"/>
</g>
<path d="M167.462 143.698C172.829 128.274 171.953 112.166 166.18 98.1337C166.185 98.0608 166.193 97.9884 166.194 97.9141L166.533 72.0433C166.566 69.5476 165.637 67.2174 164.044 65.4539L170.777 46.1047C172.526 41.0806 169.86 35.5704 164.836 33.822L116.24 16.911C111.216 15.1627 105.706 17.828 103.958 22.852L97.2244 42.2009C94.8808 42.595 92.7054 43.8448 91.182 45.8217L75.3877 66.3146C75.3426 66.3734 75.303 66.4345 75.2623 66.4952C67.4721 70.8601 60.5651 76.8406 55.1066 84.1688L49.2754 82.1396C44.251 80.3912 38.7413 83.0562 36.9928 88.0806L30.6512 106.304C28.9027 111.329 31.5678 116.838 36.5922 118.587L42.4233 120.616C42.1529 129.75 43.8553 138.727 47.2531 146.986C47.2475 147.059 47.2403 147.131 47.2393 147.204L46.8994 173.075C46.8666 175.57 47.7954 177.9 49.388 179.664L42.6548 199.013C40.9065 204.037 43.5718 209.547 48.5958 211.296L97.192 228.207C102.216 229.955 107.726 227.29 109.475 222.266L116.208 202.917C118.552 202.523 120.728 201.273 122.251 199.296L138.046 178.804C138.091 178.745 138.131 178.683 138.172 178.622C151.408 171.205 162.094 159.121 167.462 143.698ZM96.2759 49.748C97.1224 48.6499 98.5709 48.218 99.8803 48.6737L138.023 61.9468C139.7 62.5305 141.533 61.6438 142.117 59.9665C142.701 58.2892 141.814 56.456 140.137 55.8723L103.691 43.1894L110.032 24.9659C110.615 23.2912 112.452 22.4028 114.126 22.9855L162.723 39.8966C164.397 40.4793 165.286 42.3161 164.703 43.9908L158.361 62.2144L152.287 60.1006C150.61 59.5169 148.777 60.4036 148.193 62.0809C147.609 63.7583 148.496 65.5914 150.173 66.1751L157.944 68.8792C159.253 69.3348 160.121 70.5723 160.103 71.9587L159.912 86.4508C152.416 75.3771 141.427 66.5365 127.855 61.8137C114.283 57.0909 100.18 57.1996 87.4286 61.2272L96.2759 49.748ZM38.706 112.512C37.0314 111.93 36.1429 110.093 36.7257 108.418L43.0673 90.1945C43.6501 88.5198 45.4869 87.6314 47.1615 88.2142L51.4202 89.6961C49.2534 93.3444 47.4185 97.2606 45.971 101.42C44.5236 105.58 43.5308 109.789 42.9646 113.994L38.706 112.512ZM125.741 67.8882C155.887 78.3786 171.877 111.438 161.387 141.584C150.897 171.729 117.837 187.72 87.6914 177.23C57.5458 166.739 41.5552 133.68 52.0456 103.534C62.536 73.3884 95.5956 57.3978 125.741 67.8882ZM117.157 195.37C116.31 196.468 114.862 196.9 113.553 196.444L105.783 193.74C104.105 193.157 102.272 194.043 101.688 195.721C101.105 197.398 101.991 199.231 103.669 199.815L109.742 201.928L103.4 220.152C102.818 221.827 100.981 222.715 99.3062 222.132L50.71 205.221C49.0354 204.639 48.1469 202.802 48.7297 201.127L55.0713 182.904L91.5181 195.587C93.1954 196.17 95.0286 195.284 95.6123 193.606C96.196 191.929 95.3093 190.096 93.632 189.512L55.4897 176.239C54.1802 175.783 53.3127 174.546 53.3307 173.159L53.5209 158.668C61.0176 169.741 72.0063 178.582 85.5775 183.304C99.1499 188.027 113.253 187.918 126.005 183.89L117.157 195.37Z" fill="black"/>
<path d="M89.8053 171.155C116.602 180.48 145.988 166.266 155.313 139.47C159.007 128.855 159.155 117.6 155.74 106.922C155.199 105.23 153.389 104.297 151.697 104.838C150.006 105.379 149.073 107.189 149.614 108.881C152.273 117.196 152.455 125.912 150.183 134.28L147.258 133.262C145.58 132.678 143.747 133.565 143.163 135.242C142.58 136.92 143.466 138.753 145.144 139.336L148.071 140.355C139.261 160.867 116.544 171.855 94.9946 166.028L96.0134 163.1C96.5971 161.423 95.7104 159.59 94.033 159.006C92.3557 158.422 90.5225 159.309 89.9388 160.986L88.9201 163.914C68.4084 155.104 57.4206 132.387 63.2474 110.837L66.175 111.856C67.8523 112.44 69.6855 111.553 70.2692 109.876C70.8528 108.198 69.9662 106.365 68.2888 105.782L65.3613 104.763C74.1715 84.2511 96.8882 73.2633 118.438 79.0901L117.419 82.0176C116.836 83.695 117.722 85.5281 119.4 86.1118C121.077 86.6955 122.91 85.8088 123.494 84.1315L124.512 81.2062C132.48 84.619 139.199 90.1711 144.067 97.4154C145.058 98.8887 147.056 99.2819 148.53 98.2908C150.004 97.3 150.396 95.3023 149.406 93.8279C143.155 84.5254 134.241 77.6561 123.627 73.9628C96.8311 64.6379 67.4449 78.8517 58.1201 105.648C48.7953 132.444 63.009 161.83 89.8053 171.155Z" fill="black"/>
<path d="M117.286 92.1864C115.609 91.6027 113.775 92.4894 113.192 94.1667L103.679 121.502C103.67 121.527 103.665 121.553 103.657 121.579C103.637 121.641 103.618 121.703 103.602 121.766C103.591 121.809 103.582 121.851 103.573 121.894C103.561 121.953 103.549 122.013 103.54 122.073C103.532 122.121 103.526 122.169 103.521 122.218C103.516 122.272 103.511 122.326 103.508 122.381C103.505 122.436 103.504 122.49 103.503 122.544C103.503 122.593 103.504 122.642 103.506 122.691C103.508 122.751 103.513 122.811 103.519 122.87C103.523 122.915 103.528 122.959 103.534 123.003C103.543 123.067 103.554 123.13 103.567 123.192C103.572 123.219 103.575 123.246 103.581 123.273L110.312 152.856C110.567 153.978 111.381 154.829 112.394 155.181C112.943 155.372 113.552 155.417 114.161 155.278C115.893 154.884 116.977 153.161 116.583 151.429L110.057 122.745L119.266 96.2806C119.85 94.6032 118.963 92.7701 117.286 92.1864Z" fill="black"/>
</svg>
